<svg width="19" height="13" viewBox="0 0 19 13" fill="none" xmlns="http://www.w3.org/2000/svg">
<path d="M1 0.25C0.585786 0.25 0.25 0.585786 0.25 1C0.25 1.41421 0.585786 1.75 1 1.75H17.5C17.9142 1.75 18.25 1.41421 18.25 1C18.25 0.585786 17.9142 0.25 17.5 0.25H1Z" fill="white"/>
<path d="M1 5.5C0.585786 5.5 0.25 5.83579 0.25 6.25C0.25 6.66421 0.585786 7 1 7H17.5C17.9142 7 18.25 6.66421 18.25 6.25C18.25 5.83579 17.9142 5.5 17.5 5.5H1Z" fill="white"/>
<path d="M1 10.75C0.585786 10.75 0.25 11.0858 0.25 11.5C0.25 11.9142 0.585786 12.25 1 12.25H17.5C17.9142 12.25 18.25 11.9142 18.25 11.5C18.25 11.0858 17.9142 10.75 17.5 10.75H1Z" fill="white"/>
</svg>
