<svg width="14" height="14" viewBox="0 0 14 14" fill="none" xmlns="http://www.w3.org/2000/svg">
<path d="M0.88606 0.21967C1.17895 -0.0732231 1.65383 -0.0732234 1.94672 0.21967L7.24989 5.52284L12.5529 0.219776C12.8458 -0.0731172 13.3207 -0.0731172 13.6136 0.219776C13.9065 0.512669 13.9065 0.987543 13.6136 1.28044L8.31055 6.5835L13.614 11.8869C13.9069 12.1798 13.9069 12.6547 13.614 12.9476C13.3211 13.2405 12.8462 13.2405 12.5533 12.9476L7.24989 7.64416L1.94635 12.9477C1.65345 13.2406 1.17858 13.2406 0.885685 12.9477C0.592792 12.6548 0.592792 12.1799 0.885685 11.887L6.18923 6.5835L0.88606 1.28033C0.593167 0.987437 0.593167 0.512563 0.88606 0.21967Z" fill="white"/>
</svg>
